# xmcd
#
# Track frame offsets: 
#        187
#        12680
#        28147
#        40080
#        50665
#        63012
#        79465
#        93472
#        107765
#        120252
#
# Disc length: 1793 seconds
#
# Revision: 1
# Processed by: cddbd v1.5.2PL0 Copyright (c) Steve Scherf et al.
# Submitted via: ExactAudioCopyFreeDBPlugin 1.0
#
DISCID=7f06ff0a
DTITLE=Conway Twitty and Loretta Lynn - Two's A Party
DYEAR=1990
DGENRE=Country
TTITLE0=Two's A Party
TTITLE1=The State Of Our Union
TTITLE2=Lovin' What Your Lovin' Does To Me
TTITLE3=I'd Rather Have What We Had
TTITLE4=Oh Honey-Oh Babe
TTITLE5=Right In The Palm Of Your Hand
TTITLE6=Silent Partner
TTITLE7=I Still Believe In Waltzes
TTITLE8=We've Been Strong Long Enough
TTITLE9=If I Ever Had To Say Goodbye To You
EXTD=
EXTT0=
EXTT1=
EXTT2=
EXTT3=
EXTT4=
EXTT5=
EXTT6=
EXTT7=
EXTT8=
EXTT9=
PLAYORDER=
